HIERARCHY
ROOT Hips
{
  OFFSET 37.6286 98.7844 2.09326
  CHANNELS 6 Xposition Yposition Zposition Zrotation Xrotation Yrotation
  JOINT spine
  {
    OFFSET 0 8.30104 0.477351
    CHANNELS 3 Zrotation Xrotation Yrotation
    JOINT spine1
    {
      OFFSET 0 10.4565 0
      CHANNELS 3 Zrotation Xrotation Yrotation
      JOINT spine2
      {
        OFFSET 0 10.0192 0
        CHANNELS 3 Zrotation Xrotation Yrotation
        JOINT Neck
        {
          OFFSET 0 25.7235 1.22641
          CHANNELS 3 Zrotation Xrotation Yrotation
          JOINT Head
          {
            OFFSET 0 7.77175 0
            CHANNELS 3 Zrotation Xrotation Yrotation
            End Site
            {
              OFFSET 0 18.812 -6.20394
            }
          }
        }
        JOINT RightShoulder
        {
          OFFSET -4.2188 10.82 -0.587439
          CHANNELS 3 Zrotation Xrotation Yrotation
          JOINT RightArm
          {
            OFFSET 0 14.1914 0
            CHANNELS 3 Zrotation Xrotation Yrotation
            JOINT RightArmRoll
            {
              OFFSET 0 7.16409 0
              CHANNELS 3 Zrotation Xrotation Yrotation
              JOINT RightForeArm
              {
                OFFSET 0 20.8665 0
                CHANNELS 3 Zrotation Xrotation Yrotation
                JOINT RightForeArmRoll
                {
                  OFFSET 0 8.03921 0
                  CHANNELS 3 Zrotation Xrotation Yrotation
                  JOINT RightHand
                  {
                    OFFSET 0 16.133 0
                    CHANNELS 3 Zrotation Xrotation Yrotation
                    End Site
                    {
                      OFFSET 0 0 0
                    }
                  }
                }
              }
            }
          }
        }
        JOINT LeftShoulder
        {
          OFFSET 4.2188 10.82 -0.587439
          CHANNELS 3 Zrotation Xrotation Yrotation
          JOINT LeftArm
          {
            OFFSET 0 14.1914 0
            CHANNELS 3 Zrotation Xrotation Yrotation
            JOINT LeftArmRoll
            {
              OFFSET 0 7.16408 0
              CHANNELS 3 Zrotation Xrotation Yrotation
              JOINT LeftForeArm
              {
                OFFSET 0 20.8665 0
                CHANNELS 3 Zrotation Xrotation Yrotation
                JOINT LeftForeArmRoll
                {
                  OFFSET 0 8.03921 0
                  CHANNELS 3 Zrotation Xrotation Yrotation
                  JOINT LeftHand
                  {
                    OFFSET 0 16.133 0
                    CHANNELS 3 Zrotation Xrotation Yrotation
                    End Site
                    {
                      OFFSET 0 0 0
                    }
                  }
                }
              }
            }
          }
        }
      }
    }
  }
  JOINT RightUpLeg
  {
    OFFSET -7.35773 -1.34921 -1.13182
    CHANNELS 3 Zrotation Xrotation Yrotation
    JOINT RightUpLegRoll
    {
      OFFSET 0 18.9168 0
      CHANNELS 3 Zrotation Xrotation Yrotation
      JOINT RightLeg
      {
        OFFSET 0 -23.4256 0
        CHANNELS 3 Zrotation Xrotation Yrotation
        JOINT RightLegRoll
        {
          OFFSET 0 23.5023 0
          CHANNELS 3 Zrotation Xrotation Yrotation
          JOINT RightFoot
          {
            OFFSET 0 19.5617 0
            CHANNELS 3 Zrotation Xrotation Yrotation
            JOINT RightToeBase
            {
              OFFSET 0 16.3526 0
              CHANNELS 3 Zrotation Xrotation Yrotation
              End Site
              {
                OFFSET 0.00693125 7.91944 -0.912837
              }
            }
          }
        }
      }
    }
  }
  JOINT LeftUpLeg
  {
    OFFSET 7.35773 -1.34921 -1.13182
    CHANNELS 3 Zrotation Xrotation Yrotation
    JOINT LeftUpLegRoll
    {
      OFFSET 0 18.9169 0
      CHANNELS 3 Zrotation Xrotation Yrotation
      JOINT LeftLeg
      {
        OFFSET 0 23.4255 0
        CHANNELS 3 Zrotation Xrotation Yrotation
        JOINT LeftLegRoll
        {
          OFFSET 0 23.7195 0
          CHANNELS 3 Zrotation Xrotation Yrotation
          JOINT LeftFoot
          {
            OFFSET 0 19.3444 0
            CHANNELS 3 Zrotation Xrotation Yrotation
            JOINT LeftToeBase
            {
              OFFSET 0 16.3526 0
              CHANNELS 3 Zrotation Xrotation Yrotation
              End Site
              {
                OFFSET -0.0310629 7.91943 -0.912837
              }
            }
          }
        }
      }
    }
  }
}
MOTION
Frames: 4
Frame Time: 0.00208333
37.2712 98.8065 1.667 0.831052 -3.58094 1.67071 0.019758 -1.23235 0.113237 0.0406284 1.53816 0.211725 0.0382097 3.18324 0.211248 -0.374311 20.3912 -0.978956 -0.155743 -5.52075 -1.12438 76.306 -0.70098 -2.31694 93.2846 19.9261 22.1573 2.20394e-005 -2.31707e-006 -1.89492e-006 13.2556 0.236771 -0.142152 -1.52827e-005 -2.67162e-006 -3.02664 8.02891 -4.95145 0.697698 -67.7961 3.69997 -0.799153 -99.0924 13.2515 -22.0988 3.62607e-006 1.11986e-006 -5.27881e-006 -5.7959 0.0406479 0.823295 1.41463e-005 -5.88365e-007 3.03748 -8.02944 -4.95142 -0.697663 176.029 -1.00677 1.26262 -180 7.01549e-015 178.933 175.648 4.69067 179.787 2.32732e-006 -4.47348e-006 0.0466959 -18.5374 67.8477 19.4267 8.13649 25.2326 -3.48773 -175.292 -0.674212 0.347193 4.54188e-006 -4.6773e-006 -1.16823 -3.72599 -9.2775 0.385965 -1.12726e-006 -1.61772e-006 -0.12064 18.403 67.5617 -19.1712 -8.13649 25.2327 3.48774 
37.2742 98.8095 1.66745 0.829826 -3.58099 1.67107 0.0201375 -1.23331 0.113184 0.041363 1.53624 0.21052 0.0389381 3.18132 0.210019 -0.364081 20.414 -0.983723 -0.175452 -5.54691 -1.12884 76.3087 -0.699119 -2.31641 93.2969 19.887 22.0475 2.20394e-005 -2.31707e-006 -1.89492e-006 13.3399 0.361194 -0.143715 -1.52827e-005 -2.67162e-006 -3.02509 8.02891 -4.95145 0.697698 -67.7959 3.69523 -0.796806 -99.0882 13.2011 -22.1381 3.62607e-006 1.11986e-006 -5.27881e-006 -5.77453 0.0295994 0.812566 1.41463e-005 -5.88365e-007 3.03549 -8.02944 -4.95142 -0.697663 176.029 -1.00636 1.26627 -180 7.01549e-015 178.933 175.643 4.6929 179.787 2.32732e-006 -4.47348e-006 0.0466959 -18.5372 67.8475 19.4267 8.13649 25.2326 -3.48773 -175.292 -0.670585 0.348619 4.54188e-006 -4.6773e-006 -1.16835 -3.72361 -9.28609 0.386008 -1.12726e-006 -1.61772e-006 -0.120715 18.4054 67.5648 -19.1738 -8.13649 25.2327 3.48774 
37.2755 98.8058 1.65928 0.828685 -3.58071 1.67159 0.0205152 -1.23435 0.113101 0.0421407 1.53415 0.209157 0.0397105 3.17923 0.208632 -0.35365 20.4374 -0.988399 -0.196007 -5.57365 -1.13327 76.3114 -0.697082 -2.3158 93.3096 19.8467 21.9377 2.20394e-005 -2.31707e-006 -1.89492e-006 13.4252 0.479641 -0.143507 -1.52827e-005 -2.67162e-006 -3.02347 8.02891 -4.95145 0.697698 -67.7953 3.69023 -0.794378 -99.0851 13.1502 -22.1788 3.62607e-006 1.11986e-006 -5.27881e-006 -5.75214 0.0131604 0.801213 1.41463e-005 -5.88365e-007 3.03345 -8.02944 -4.95142 -0.697663 176.027 -1.00549 1.27082 -180 7.01549e-015 178.933 175.637 4.6952 179.788 2.32732e-006 -4.47348e-006 0.0466959 -18.5371 67.8472 19.4266 8.13649 25.2326 -3.48773 -175.291 -0.665564 0.350219 4.54188e-006 -4.6773e-006 -1.16846 -3.72114 -9.29668 0.386037 -1.12726e-006 -1.61772e-006 -0.120828 18.4085 67.5687 -19.1771 -8.13649 25.2327 3.48774 
37.2748 98.8123 1.66708 0.827604 -3.5802 1.67221 0.0208916 -1.23546 0.112997 0.0429486 1.53194 0.207685 0.0405136 3.17702 0.207133 -0.343077 20.4611 -0.993011 -0.217157 -5.60081 -1.13768 76.314 -0.694921 -2.31514 93.3226 19.8055 21.8278 2.20394e-005 -2.31707e-006 -1.89492e-006 13.5112 0.593907 -0.142061 -1.52827e-005 -2.67162e-006 -3.02181 8.02891 -4.95145 0.697698 -67.7945 3.68506 -0.791892 -99.0826 13.0989 -22.2203 3.62607e-006 1.11986e-006 -5.27881e-006 -5.72905 -0.00705178 0.789422 1.41463e-005 -5.88365e-007 3.03135 -8.02944 -4.95142 -0.697663 176.026 -1.00429 1.276 -180 7.01549e-015 178.933 175.63 4.69755 179.789 2.32732e-006 -4.47348e-006 0.0466959 -18.5369 67.847 19.4267 8.13649 25.2326 -3.48773 -175.291 -0.659568 0.351941 4.54188e-006 -4.6773e-006 -1.16857 -3.71862 -9.30867 0.386055 -1.12726e-006 -1.61772e-006 -0.120967 18.412 67.5734 -19.181 -8.13649 25.2327 3.48774 
